<?xml version="1.0" encoding="utf-8"?>
<svg fill-rule="evenodd" viewBox="0 0 180 72" xmlns="http://www.w3.org/2000/svg">
  <rect style="fill: rgb(9, 47, 66);" width="180" height="72" rx="8" ry="8"/>
  <g transform="matrix(1, 0, 0, 1, 2.139833, 0)">
    <g transform="matrix(0.50133, 0, 0, 0.50133, 215.514572, -168.347855)" style="">
      <path d="m-299.036 399.581c-6.88566 0-13.966 5.51768-13.966 15.1756 0 8.82926 6.22524 15.0656 13.966 15.0656 6.38958 0 9.23732-4.28876 9.23732-4.28876v1.86946c0 .8836.83542 1.86946 1.86946 1.86946h4.61866v-29.0316h-6.48812v3.68394s-2.8716-4.34376-9.23732-4.34376zm1.15574 5.93636c5.66836 0 8.64172 4.9851 8.64172 9.2371 0 4.73604-3.5303 9.23388-8.6297 9.2339-4.26278 0-8.53284-3.45238-8.53284-9.2964 0-5.27526 3.67466-9.1746 8.52082-9.1746z" style="fill: rgb(255, 255, 255);"/>
      <path d="m-274.293 429.272c-.99682 0-1.86946-.71498-1.86946-1.86946v-27.1621h6.48812v3.59262c1.47022-2.20986 4.34254-4.26128 8.75132-4.26128 7.2059 0 11.043 5.74422 11.043 11.1156v18.5846h-4.5087c-1.18224 0-1.97942-.9897-1.97942-1.97942v-15.1756c0-2.97738-1.82422-6.59332-6.04314-6.59332-4.55234 0-7.26302 4.30228-7.26302 8.3528v15.3955z" style="fill: rgb(255, 255, 255);"/>
      <path d="m-230.966 399.581c-6.88564 0-13.9659 5.51768-13.9659 15.1756 0 8.82926 6.22524 15.0656 13.9659 15.0656 6.38958 0 9.23734-4.28876 9.23734-4.28876v1.86946c0 .8836.83542 1.86946 1.86946 1.86946h4.61866v-43.5474h-6.48812v18.1997s-2.87162-4.34374-9.23734-4.34374zm1.15576 5.93636c5.66836 0 8.64172 4.9851 8.64172 9.2371 0 4.73604-3.53032 9.23388-8.6297 9.2339-4.26278 0-8.53284-3.45238-8.53284-9.2964 0-5.27528 3.67464-9.1746 8.52082-9.1746z" style="fill: rgb(255, 255, 255);"/>
      <path d="m-206.223 429.272c-.99682 0-1.86946-.71498-1.86946-1.86946v-27.1621h6.48812v4.8386c1.11676-2.7106 3.52662-5.1685 7.80774-5.1685 1.19346 0 2.30934.21994 2.30934.21994v6.70804s-1.39338-.54984-3.07912-.54984c-4.55234 0-7.03796 4.30228-7.03796 8.35282v14.6305z" style="fill: rgb(255, 255, 255);"/>
      <path d="m-152.119 429.272c-.99682 0-1.86946-.71498-1.86946-1.86946v-27.1621h6.48812v29.0316z" style="fill: rgb(255, 255, 255);"/>
      <path d="m-128.476 399.581c-6.88566 0-13.966 5.51768-13.966 15.1756 0 8.82926 6.22524 15.0656 13.966 15.0656 6.38956 0 9.23731-4.28876 9.23731-4.28876v1.86946c0 .8836.83542 1.86946 1.86946 1.86946h4.61866v-43.5474h-6.48812v18.1997s-2.87159-4.34374-9.23731-4.34374zm1.15574 5.93636c5.66836 0 8.64171 4.9851 8.64171 9.2371 0 4.73604-3.53029 9.23388-8.62969 9.2339-4.26278 0-8.53284-3.45238-8.53284-9.2964 0-5.27528 3.67466-9.1746 8.52082-9.1746z" style="fill: rgb(255, 255, 255);"/>
      <circle cx="-150.79" cy="389.69" r="4.29" style="fill: rgb(255, 255, 255);"/>
      <path d="m-174.376 399.571c-7.21114 0-15.1337 5.38276-15.1337 15.1337 0 8.88566 6.74818 15.1183 15.118 15.1183 10.315 0 15.3517-8.29218 15.3517-15.062 0-8.30724-6.48568-15.19-15.336-15.19zm.0236 6.059c4.9867 0 8.70638 4.01914 8.70638 9.09298 0 5.16184-3.94862 9.14498-8.69156 9.14498-4.40284 0-8.68276-3.583-8.68276-9.0582 0-5.56646 4.07064-9.17976 8.66794-9.17976z" style="fill: rgb(255, 255, 255);"/>
    </g>
    <path d="M 42.534 32.135 L 45.412 27.151 C 45.574 26.872 45.475 26.517 45.2 26.355 C 44.925 26.192 44.566 26.287 44.407 26.566 L 41.491 31.614 C 39.268 30.599 36.765 30.032 34.074 30.032 C 31.38 30.032 28.877 30.599 26.654 31.614 L 23.739 26.566 C 23.575 26.287 23.222 26.192 22.941 26.355 C 22.663 26.517 22.568 26.872 22.73 27.151 L 25.607 32.135 C 20.646 34.824 17.286 39.845 16.731 45.724 L 51.415 45.724 C 50.859 39.845 47.499 34.824 42.534 32.135 Z M 26.111 40.853 C 25.305 40.853 24.655 40.201 24.655 39.4 C 24.655 38.595 25.31 37.946 26.111 37.946 C 26.914 37.946 27.563 38.599 27.563 39.4 C 27.568 40.201 26.914 40.853 26.111 40.853 Z M 42.032 40.853 C 41.227 40.853 40.579 40.201 40.579 39.4 C 40.579 38.595 41.231 37.946 42.032 37.946 C 42.836 37.946 43.485 38.599 43.485 39.4 C 43.49 40.201 42.836 40.853 42.032 40.853 Z" fill="#32de84" stroke-width=".288" style=""/>
  </g>
</svg>