<?xml version="1.0" encoding="utf-8"?>
<svg viewBox="-401.788 -6.942 180 72" xmlns="http://www.w3.org/2000/svg">
  <rect style="fill: rgb(255, 255, 255);" width="180" height="72" rx="8" ry="8" x="-401.788" y="-6.942"/>
  <defs>
    <path id="C" d="M134.417 148.974l32.038-32.812-32.038-61.007c-3.042-5.8-10.433-6.398-13.443-.6l-17.705 34.1-.53 1.744z"/>
    <path id="D" d="M1.253 280.73l1.605-3.13L102.2 89.083 58.062 5.608c-3.67-6.892-12.987-5.135-14.2 2.58z"/>
  </defs>
  <linearGradient id="a" x1="80.258%" x2="21.439%" y1="98.614%" y2="-10.489%">
    <stop offset="0" stop-color="#1a237e" stop-opacity=".01"/>
    <stop offset="1" stop-color="#1a237e" stop-opacity=".3"/>
  </linearGradient>
  <g fill="none" fill-rule="evenodd" transform="matrix(0.115443, 0, 0, 0.115443, -384.155121, 6.315726)">
    <path d="m174.3 121.2c-28.1 0-52.5 15.3-65.7 37.9l51.7 29.8c8.7 5 19.3 5 28 0l51.6-29.8c-13-22.7-37.5-37.9-65.6-37.9z" fill="#e1bee7"/>
    <path d="m160.3 188.9-51.7-29.8c-6.5 11.2-10.2 24.1-10.2 37.9 0 41.9 33.9 75.8 75.8 75.8s75.8-33.9 75.8-75.8c0-13.8-3.7-26.8-10.2-37.9l-51.6 29.8c-8.5 5-19.2 5-27.9 0z" fill="#fafafa"/>
    <path d="m334.6 289.6-94.6-54.7c-13.1 22.7-37.6 37.9-65.7 37.9v120.3c4.5 0 8.9-1.2 12.9-3.5l147.5-85.2s.1 0 .1-.1c5.7-3.2 5.5-11.5-.2-14.7z" fill="#7b1fa2"/>
    <path d="m174.3 272.8c-28.1 0-52.6-15.2-65.7-37.9l-104.2 60.2c2.2 3.9 5.5 7.1 9.4 9.4l147.5 85.2c4 2.3 8.4 3.5 12.9 3.5v-120.4z" fill="#4a148c"/>
    <path d="m174.3 121.2v-120.3c-4.5 0-8.9 1.2-12.9 3.5l-147.5 85.2c-4 2.3-7.2 5.6-9.4 9.4l104.2 60.2c13.1-22.8 37.6-38 65.6-38z" fill="#7b1fa2"/>
    <path d="m334.8 89.6s-.1 0-.1-.1l-147.5-85.2c-4-2.3-8.4-3.5-12.9-3.5v120.3c28.1 0 52.6 15.2 65.7 37.9l94.6-54.6c5.7-3.2 5.9-11.5.2-14.8z" fill="#4a148c"/>
    <path d="m98.5 197c0-13.8 3.7-26.8 10.1-37.9l-104.2-60.2c-2.2 3.9-3.5 8.3-3.5 12.9v170.3c0 4.6 1.2 9 3.5 12.9l104.2-60.2c-6.4-11-10.1-24-10.1-37.8z" fill="#ba68c8"/>
    <path d="m240 234.9c-13.1 22.7-37.6 37.9-65.6 37.9-11.2 0-21.9-2.5-31.5-6.8l129.3 74.7 62.6-36.1c5.8-3.3 5.8-11.7 0-15z" fill="url(#a)"/>
  </g>
  <path d="M -324.93 34.056 L -331.608 34.056 L -332.877 37.865 L -336.927 37.865 L -330.046 19.381 L -326.517 19.381 L -319.598 37.865 L -323.648 37.865 Z M -330.579 30.971 L -325.958 30.971 L -328.282 24.053 Z M -311.038 31.098 L -314.072 31.098 L -314.072 37.865 L -317.881 37.865 L -317.881 19.381 L -311.013 19.381 Q -307.737 19.381 -305.96 20.841 Q -304.182 22.301 -304.182 24.967 Q -304.182 26.858 -305.001 28.121 Q -305.82 29.385 -307.483 30.134 L -303.484 37.687 L -303.484 37.865 L -307.572 37.865 Z M -314.072 28.013 L -311 28.013 Q -309.565 28.013 -308.778 27.283 Q -307.991 26.553 -307.991 25.271 Q -307.991 23.964 -308.734 23.215 Q -309.476 22.466 -311.013 22.466 L -314.072 22.466 Z M -286.778 31.708 Q -286.994 34.691 -288.981 36.405 Q -290.968 38.119 -294.218 38.119 Q -297.772 38.119 -299.81 35.726 Q -301.848 33.333 -301.848 29.156 L -301.848 28.026 Q -301.848 25.36 -300.908 23.329 Q -299.969 21.298 -298.223 20.212 Q -296.477 19.127 -294.167 19.127 Q -290.968 19.127 -289.013 20.841 Q -287.057 22.554 -286.753 25.652 L -290.561 25.652 Q -290.701 23.862 -291.558 23.056 Q -292.415 22.25 -294.167 22.25 Q -296.071 22.25 -297.017 23.615 Q -297.963 24.979 -297.988 27.848 L -297.988 29.245 Q -297.988 32.241 -297.08 33.625 Q -296.173 35.009 -294.218 35.009 Q -292.453 35.009 -291.583 34.202 Q -290.714 33.396 -290.587 31.708 Z M -285.094 30.87 Q -285.094 28.826 -284.307 27.226 Q -283.52 25.627 -282.041 24.751 Q -280.562 23.875 -278.607 23.875 Q -275.826 23.875 -274.068 25.576 Q -272.31 27.277 -272.107 30.197 L -272.081 31.136 Q -272.081 34.298 -273.846 36.208 Q -275.611 38.119 -278.581 38.119 Q -281.552 38.119 -283.323 36.215 Q -285.094 34.31 -285.094 31.035 Z M -281.425 31.136 Q -281.425 33.092 -280.689 34.126 Q -279.952 35.161 -278.581 35.161 Q -277.248 35.161 -276.499 34.139 Q -275.75 33.117 -275.75 30.87 Q -275.75 28.953 -276.499 27.899 Q -277.248 26.845 -278.607 26.845 Q -279.952 26.845 -280.689 27.893 Q -281.425 28.94 -281.425 31.136 Z M -262.105 27.569 Q -262.854 27.468 -263.425 27.468 Q -265.507 27.468 -266.155 28.877 L -266.155 37.865 L -269.824 37.865 L -269.824 24.129 L -266.358 24.129 L -266.256 25.766 Q -265.152 23.875 -263.197 23.875 Q -262.587 23.875 -262.054 24.04 Z M -254.262 38.119 Q -257.283 38.119 -259.181 36.265 Q -261.079 34.412 -261.079 31.327 L -261.079 30.971 Q -261.079 28.902 -260.28 27.271 Q -259.48 25.639 -258.013 24.757 Q -256.547 23.875 -254.668 23.875 Q -251.85 23.875 -250.231 25.652 Q -248.613 27.429 -248.613 30.692 L -248.613 32.19 L -257.36 32.19 Q -257.182 33.536 -256.287 34.348 Q -255.392 35.161 -254.021 35.161 Q -251.901 35.161 -250.707 33.625 L -248.905 35.643 Q -249.73 36.811 -251.139 37.465 Q -252.548 38.119 -254.262 38.119 Z M -254.681 26.845 Q -255.773 26.845 -256.452 27.582 Q -257.131 28.318 -257.322 29.689 L -252.218 29.689 L -252.218 29.397 Q -252.243 28.178 -252.878 27.512 Q -253.513 26.845 -254.681 26.845 Z" style="fill: rgb(51, 51, 51); white-space: pre;"/>
</svg>