<?xml version="1.0" encoding="utf-8"?>
<svg viewBox="0 0 180 72" fill="#fff" fill-rule="evenodd" stroke="#000" stroke-linecap="round" stroke-linejoin="round" xmlns="http://www.w3.org/2000/svg">
  <path d="M 8 0 H 172 A 8 8 0 0 1 180 8 V 64 A 8 8 0 0 1 172 72 H 8 A 8 8 0 0 1 0 64 V 8 A 8 8 0 0 1 8 0 Z" style="fill: rgb(34, 34, 34); stroke: none;"/>
  <linearGradient id="XMLID_3_" gradientUnits="userSpaceOnUse" x1="15.9594" y1="-13.0143" x2="44.3068" y2="15.3332" gradientTransform="matrix(1, 0, 0, -1, 2.578, 61)">
    <stop offset="0.0968" style="stop-color:#0095D5"/>
    <stop offset="0.3007" style="stop-color:#238AD9"/>
    <stop offset="0.6211" style="stop-color:#557BDE"/>
    <stop offset="0.8643" style="stop-color:#7472E2"/>
    <stop offset="1" style="stop-color:#806EE3"/>
  </linearGradient>
  <path d="M 26.997 57 L 48.067 35.93 L 68.997 57 L 26.997 57 Z" id="XMLID_2_" style="fill: url(#XMLID_3_); stroke: none;"/>
  <linearGradient id="SVGID_1_" gradientUnits="userSpaceOnUse" x1="4.2092" y1="48.9409" x2="20.6734" y2="65.405" gradientTransform="matrix(1, 0, 0, -1, 2.578, 61)">
    <stop offset="0.1183" style="stop-color:#0095D5"/>
    <stop offset="0.4178" style="stop-color:#3C83DC"/>
    <stop offset="0.6962" style="stop-color:#6D74E1"/>
    <stop offset="0.8333" style="stop-color:#806EE3"/>
  </linearGradient>
  <path d="M 26.997 15 L 48.067 15 L 26.997 37.75 L 26.997 15 Z" style="fill: url(#SVGID_1_); stroke: none;"/>
  <linearGradient id="SVGID_2_" gradientUnits="userSpaceOnUse" x1="-10.1017" y1="5.8362" x2="45.7315" y2="61.6694" gradientTransform="matrix(1, 0, 0, -1, 2.578, 61)">
    <stop offset="0.1075" style="stop-color:#C757BC"/>
    <stop offset="0.2138" style="stop-color:#D0609A"/>
    <stop offset="0.4254" style="stop-color:#E1725C"/>
    <stop offset="0.6048" style="stop-color:#EE7E2F"/>
    <stop offset="0.743" style="stop-color:#F58613"/>
    <stop offset="0.8232" style="stop-color:#F88909"/>
  </linearGradient>
  <path d="M 48.067 15 L 26.997 37.19 L 26.997 57 L 48.067 35.93 L 68.997 15 L 48.067 15 Z" style="fill: url(#SVGID_2_); stroke: none;"/>
  <path d="M 80.048 45.352 L 80.048 25.612 L 82.96 25.612 L 82.96 34.488 L 83.016 34.488 L 92.172 25.612 L 95.756 25.612 L 85.788 35.16 L 96.316 45.352 L 92.676 45.352 L 83.016 36.14 L 82.96 36.14 L 82.96 45.352 L 80.048 45.352 Z M 103.896 45.604 C 102.515 45.604 101.32 45.315 100.312 44.736 C 99.304 44.157 98.525 43.341 97.974 42.286 C 97.423 41.231 97.148 39.976 97.148 38.52 C 97.148 37.064 97.423 35.809 97.974 34.754 C 98.525 33.699 99.304 32.883 100.312 32.304 C 101.32 31.725 102.515 31.436 103.896 31.436 C 105.24 31.436 106.416 31.725 107.424 32.304 C 108.432 32.883 109.216 33.699 109.776 34.754 C 110.336 35.809 110.616 37.064 110.616 38.52 C 110.616 39.976 110.336 41.231 109.776 42.286 C 109.216 43.341 108.432 44.157 107.424 44.736 C 106.416 45.315 105.24 45.604 103.896 45.604 Z M 103.896 43.42 C 105.053 43.42 105.987 43 106.696 42.16 C 107.405 41.32 107.76 40.107 107.76 38.52 C 107.76 36.933 107.405 35.725 106.696 34.894 C 105.987 34.063 105.053 33.648 103.896 33.648 C 102.72 33.648 101.777 34.063 101.068 34.894 C 100.359 35.725 100.004 36.933 100.004 38.52 C 100.004 40.107 100.359 41.32 101.068 42.16 C 101.777 43 102.72 43.42 103.896 43.42 Z M 119.773 45.604 C 118.056 45.604 116.777 45.165 115.937 44.288 C 115.097 43.411 114.677 42.141 114.677 40.48 L 114.677 33.872 L 112.017 33.872 L 112.017 31.688 L 114.677 31.688 L 114.677 27.572 L 117.505 27.572 L 117.505 31.688 L 121.733 31.688 L 121.733 33.872 L 117.505 33.872 L 117.505 40.256 C 117.505 41.245 117.715 41.992 118.135 42.496 C 118.555 43 119.241 43.252 120.193 43.252 C 120.492 43.252 120.781 43.219 121.061 43.154 C 121.341 43.089 121.621 43.009 121.901 42.916 L 122.349 45.044 C 122.069 45.212 121.682 45.347 121.187 45.45 C 120.692 45.553 120.221 45.604 119.773 45.604 Z M 129.145 45.604 C 127.652 45.604 126.536 45.184 125.799 44.344 C 125.062 43.504 124.693 42.272 124.693 40.648 L 124.693 25.612 L 127.521 25.612 L 127.521 40.48 C 127.521 42.328 128.277 43.252 129.789 43.252 C 130.013 43.252 130.223 43.243 130.419 43.224 C 130.615 43.205 130.816 43.168 131.021 43.112 L 130.965 45.38 C 130.33 45.529 129.724 45.604 129.145 45.604 Z M 133.37 28.524 L 133.37 25.584 L 136.674 25.584 L 136.674 28.524 L 133.37 28.524 Z M 133.622 45.352 L 133.622 31.688 L 136.45 31.688 L 136.45 45.352 L 133.622 45.352 Z M 140.766 45.352 L 140.766 31.688 L 143.51 31.688 L 143.51 33.956 C 143.977 33.135 144.616 32.509 145.428 32.08 C 146.24 31.651 147.15 31.436 148.158 31.436 C 151.387 31.436 153.002 33.265 153.002 36.924 L 153.002 45.352 L 150.174 45.352 L 150.174 37.092 C 150.174 35.916 149.945 35.057 149.488 34.516 C 149.031 33.975 148.317 33.704 147.346 33.704 C 146.207 33.704 145.297 34.063 144.616 34.782 C 143.935 35.501 143.594 36.448 143.594 37.624 L 143.594 45.352 L 140.766 45.352 Z" style="stroke: none; white-space: pre;"/>
</svg>